<mxfile host="app.diagrams.net" agent="Mozilla/5.0 (Windows NT 10.0; Win64; x64) AppleWebKit/537.36 (KHTML, like Gecko) Chrome/131.0.0.0 Safari/537.36" version="24.7.17">
  <diagram id="C5RBs43oDa-KdzZeNtuy" name="Page-1">
    <mxGraphModel dx="1054" dy="737" grid="1" gridSize="10" guides="1" tooltips="1" connect="1" arrows="1" fold="1" page="1" pageScale="1" pageWidth="827" pageHeight="1169" math="0" shadow="0">
      <root>
        <mxCell id="WIyWlLk6GJQsqaUBKTNV-0" />
        <mxCell id="WIyWlLk6GJQsqaUBKTNV-1" parent="WIyWlLk6GJQsqaUBKTNV-0" />
        <mxCell id="3GC8QEIZXes-Kf53vE3f-0" value="Member&lt;div&gt;&lt;br&gt;&lt;/div&gt;" style="swimlane;fontStyle=1;align=center;verticalAlign=top;childLayout=stackLayout;horizontal=1;startSize=26;horizontalStack=0;resizeParent=1;resizeParentMax=0;resizeLast=0;collapsible=1;marginBottom=0;whiteSpace=wrap;html=1;" vertex="1" parent="WIyWlLk6GJQsqaUBKTNV-1">
          <mxGeometry x="100" y="100" width="160" height="200" as="geometry" />
        </mxCell>
        <mxCell id="3GC8QEIZXes-Kf53vE3f-1" value="id : String&lt;div&gt;password : String&lt;/div&gt;&lt;div&gt;name : String&lt;/div&gt;&lt;div&gt;address : String&lt;/div&gt;&lt;div&gt;phoneNum : String&lt;/div&gt;" style="text;strokeColor=none;fillColor=none;align=left;verticalAlign=top;spacingLeft=4;spacingRight=4;overflow=hidden;rotatable=0;points=[[0,0.5],[1,0.5]];portConstraint=eastwest;whiteSpace=wrap;html=1;" vertex="1" parent="3GC8QEIZXes-Kf53vE3f-0">
          <mxGeometry y="26" width="160" height="94" as="geometry" />
        </mxCell>
        <mxCell id="3GC8QEIZXes-Kf53vE3f-2" value="" style="line;strokeWidth=1;fillColor=none;align=left;verticalAlign=middle;spacingTop=-1;spacingLeft=3;spacingRight=3;rotatable=0;labelPosition=right;points=[];portConstraint=eastwest;strokeColor=inherit;" vertex="1" parent="3GC8QEIZXes-Kf53vE3f-0">
          <mxGeometry y="120" width="160" height="8" as="geometry" />
        </mxCell>
        <mxCell id="3GC8QEIZXes-Kf53vE3f-3" value="+viewMember() : String&lt;div&gt;+regMember() : void&lt;/div&gt;&lt;div&gt;+modMember() : void&lt;/div&gt;&lt;div&gt;+delMember() : void&lt;/div&gt;" style="text;strokeColor=none;fillColor=none;align=left;verticalAlign=top;spacingLeft=4;spacingRight=4;overflow=hidden;rotatable=0;points=[[0,0.5],[1,0.5]];portConstraint=eastwest;whiteSpace=wrap;html=1;" vertex="1" parent="3GC8QEIZXes-Kf53vE3f-0">
          <mxGeometry y="128" width="160" height="72" as="geometry" />
        </mxCell>
        <mxCell id="3GC8QEIZXes-Kf53vE3f-4" value="&lt;div&gt;Car&lt;/div&gt;" style="swimlane;fontStyle=1;align=center;verticalAlign=top;childLayout=stackLayout;horizontal=1;startSize=26;horizontalStack=0;resizeParent=1;resizeParentMax=0;resizeLast=0;collapsible=1;marginBottom=0;whiteSpace=wrap;html=1;" vertex="1" parent="WIyWlLk6GJQsqaUBKTNV-1">
          <mxGeometry x="300" y="100" width="160" height="200" as="geometry" />
        </mxCell>
        <mxCell id="3GC8QEIZXes-Kf53vE3f-5" value="carNumber : String&lt;div&gt;carName : String&lt;/div&gt;&lt;div&gt;carColor : String&lt;/div&gt;&lt;div&gt;carSize : int&lt;/div&gt;&lt;div&gt;carMaker : String&lt;/div&gt;" style="text;strokeColor=none;fillColor=none;align=left;verticalAlign=top;spacingLeft=4;spacingRight=4;overflow=hidden;rotatable=0;points=[[0,0.5],[1,0.5]];portConstraint=eastwest;whiteSpace=wrap;html=1;" vertex="1" parent="3GC8QEIZXes-Kf53vE3f-4">
          <mxGeometry y="26" width="160" height="94" as="geometry" />
        </mxCell>
        <mxCell id="3GC8QEIZXes-Kf53vE3f-6" value="" style="line;strokeWidth=1;fillColor=none;align=left;verticalAlign=middle;spacingTop=-1;spacingLeft=3;spacingRight=3;rotatable=0;labelPosition=right;points=[];portConstraint=eastwest;strokeColor=inherit;" vertex="1" parent="3GC8QEIZXes-Kf53vE3f-4">
          <mxGeometry y="120" width="160" height="8" as="geometry" />
        </mxCell>
        <mxCell id="3GC8QEIZXes-Kf53vE3f-7" value="+checkCarInfo() : String&lt;div&gt;+regCarInfo() : void&lt;/div&gt;&lt;div&gt;+modCarInfo() : void&lt;/div&gt;&lt;div&gt;+delCarInfo() : void&lt;/div&gt;" style="text;strokeColor=none;fillColor=none;align=left;verticalAlign=top;spacingLeft=4;spacingRight=4;overflow=hidden;rotatable=0;points=[[0,0.5],[1,0.5]];portConstraint=eastwest;whiteSpace=wrap;html=1;" vertex="1" parent="3GC8QEIZXes-Kf53vE3f-4">
          <mxGeometry y="128" width="160" height="72" as="geometry" />
        </mxCell>
        <mxCell id="3GC8QEIZXes-Kf53vE3f-8" value="&lt;div&gt;Reserve&lt;/div&gt;" style="swimlane;fontStyle=1;align=center;verticalAlign=top;childLayout=stackLayout;horizontal=1;startSize=26;horizontalStack=0;resizeParent=1;resizeParentMax=0;resizeLast=0;collapsible=1;marginBottom=0;whiteSpace=wrap;html=1;" vertex="1" parent="WIyWlLk6GJQsqaUBKTNV-1">
          <mxGeometry x="480" y="100" width="160" height="200" as="geometry" />
        </mxCell>
        <mxCell id="3GC8QEIZXes-Kf53vE3f-9" value="resNumber : String&lt;div&gt;resCarNumber : String&lt;/div&gt;&lt;div&gt;resDate : String&lt;/div&gt;&lt;div&gt;useBeginDate : String&lt;/div&gt;&lt;div&gt;useEndDate : String&lt;/div&gt;" style="text;strokeColor=none;fillColor=none;align=left;verticalAlign=top;spacingLeft=4;spacingRight=4;overflow=hidden;rotatable=0;points=[[0,0.5],[1,0.5]];portConstraint=eastwest;whiteSpace=wrap;html=1;" vertex="1" parent="3GC8QEIZXes-Kf53vE3f-8">
          <mxGeometry y="26" width="160" height="94" as="geometry" />
        </mxCell>
        <mxCell id="3GC8QEIZXes-Kf53vE3f-10" value="" style="line;strokeWidth=1;fillColor=none;align=left;verticalAlign=middle;spacingTop=-1;spacingLeft=3;spacingRight=3;rotatable=0;labelPosition=right;points=[];portConstraint=eastwest;strokeColor=inherit;" vertex="1" parent="3GC8QEIZXes-Kf53vE3f-8">
          <mxGeometry y="120" width="160" height="8" as="geometry" />
        </mxCell>
        <mxCell id="3GC8QEIZXes-Kf53vE3f-11" value="+checkResInfo() : String&lt;div&gt;+resCar() : void&lt;/div&gt;&lt;div&gt;+modResInfo() : void&lt;/div&gt;&lt;div&gt;+cancelResInfo() : void&lt;/div&gt;" style="text;strokeColor=none;fillColor=none;align=left;verticalAlign=top;spacingLeft=4;spacingRight=4;overflow=hidden;rotatable=0;points=[[0,0.5],[1,0.5]];portConstraint=eastwest;whiteSpace=wrap;html=1;" vertex="1" parent="3GC8QEIZXes-Kf53vE3f-8">
          <mxGeometry y="128" width="160" height="72" as="geometry" />
        </mxCell>
      </root>
    </mxGraphModel>
  </diagram>
</mxfile>
